# xmcd
#
# Track frame offsets:
#	150
#	5238
#	27612
#	41228
#	58968
#	81324
#	101913
#	120756
#	134621
#	148685
#	165633
#	183510
#	196260
#	209029
#
# Disc length: 3061 seconds
#
# Revision: 0
# Processed by: cddbd v1.4PL0 Copyright (c) Steve Scherf et al.
# Submitted via: EasyCDDAExtractor 5.0.5.1
#
DISCID=db0bf30e
DTITLE=Missy Elliot - Under Construction
DYEAR=1900
DGENRE=
TTITLE0=Intro
TTITLE1=Work It
TTITLE2=Bring The Pain (f/ Method Man)
TTITLE3=Gossip Folks (f/ Ludacris)
TTITLE4=Back In the Day (f/ Jay-Z)
TTITLE5=Pussycat
TTITLE6=Go To The Floor
TTITLE7=Play the Beat
TTITLE8=Nothing Out There For Me (f/ Beyonce Knowles)
TTITLE9=Slide
TTITLE10=Funky Fresh Dressed (f/ Ms. Jade)
TTITLE11=Ain't That Funny
TTITLE12=Swing Your Partner
TTITLE13=Can You Hear Me (f/ TLC) 
EXTD=
EXTT0=
EXTT1=
EXTT2=
EXTT3=
EXTT4=
EXTT5=
EXTT6=
EXTT7=
EXTT8=
EXTT9=
EXTT10=
EXTT11=
EXTT12=
EXTT13=
PLAYORDER=
